<?xml version="1.0" encoding="UTF-8"?>
<svg width="16px" height="14px" viewBox="0 0 16 14" version="1.1" xmlns="http://www.w3.org/2000/svg" xmlns:xlink="http://www.w3.org/1999/xlink">
    <!-- Generator: Sketch 51 (57462) - http://www.bohemiancoding.com/sketch -->
    <title>Slice 1</title>
    <desc>Created with Sketch.</desc>
    <defs></defs>
    <g id="Page-1" stroke="none" stroke-width="1" fill="none" fill-rule="evenodd">
        <g id="foodIcon" fill="#FFFFFF" fill-rule="nonzero">
            <path d="M15.2273333,10.6832727 C15.1326667,10.5674545 14.9873333,10.5 14.8333333,10.5 L1.16666667,10.5 C1.01266667,10.5 0.867333333,10.5674545 0.772666667,10.6832727 C0.678,10.7997273 0.644666667,10.9505455 0.682,11.0930909 L1.34866667,13.6385455 C1.404,13.8510909 1.604,14 1.83333333,14 L14.1666667,14 C14.396,14 14.596,13.8510909 14.652,13.6385455 L15.3186667,11.0930909 C15.356,10.9505455 15.322,10.7997273 15.2273333,10.6832727 Z" id="Shape"></path>
            <path d="M8,4.13636364 C7.632,4.13636364 7.33333333,3.85190909 7.33333333,3.5 L7.33333333,2.22727273 C7.33333333,1.87536364 7.632,1.59090909 8,1.59090909 C8.368,1.59090909 8.66666667,1.87536364 8.66666667,2.22727273 L8.66666667,3.5 C8.66666667,3.85190909 8.368,4.13636364 8,4.13636364 Z" id="Shape"></path>
            <ellipse id="Oval" cx="8" cy="1.27272727" rx="1.33333333" ry="1.27272727"></ellipse>
            <path d="M8.04666667,3.18181818 C4.38,3.14363636 1.2,5.90545455 0.7,9.38636364 L15.22,9.38636364 C14.7266667,5.96909091 11.66,3.22 8.04666667,3.18181818 Z M12.48,8.95363636 C12.2066667,8.95363636 11.98,8.73727273 11.9866667,8.47636364 C12,6.98090909 10.7466667,5.75272727 9.18,5.74 C8.90666667,5.73363636 8.68666667,5.52363636 8.68666667,5.25636364 C8.69333333,4.99545455 8.92,4.77909091 9.19333333,4.78545455 C11.3066667,4.80454545 13.0066667,6.46545455 12.9866667,8.48272727 C12.98,8.75 12.7533333,8.96 12.48,8.95363636 Z" id="Shape"></path>
            <path d="M15.3333333,10.3409091 L0.666666667,10.3409091 C0.298666667,10.3409091 0,10.6253636 0,10.9772727 C0,11.3291818 0.298666667,11.6136364 0.666666667,11.6136364 L15.3333333,11.6136364 C15.7013333,11.6136364 16,11.3291818 16,10.9772727 C16,10.6253636 15.7013333,10.3409091 15.3333333,10.3409091 Z" id="Shape"></path>
        </g>
    </g>
</svg>